<mxfile host="app.diagrams.net" modified="2023-06-29T12:31:43.894Z" agent="Mozilla/5.0 (Windows NT 10.0; Win64; x64) AppleWebKit/537.36 (KHTML, like Gecko) Chrome/114.0.0.0 Safari/537.36" etag="T9za7YJm9GSGKyVwpNgY" version="21.5.1" type="google">
  <diagram name="Page-1" id="C6SYpTfeDrm3ewodAGLA">
    <mxGraphModel dx="831" dy="1090" grid="1" gridSize="10" guides="1" tooltips="1" connect="1" arrows="1" fold="1" page="1" pageScale="1" pageWidth="827" pageHeight="1169" math="0" shadow="0">
      <root>
        <mxCell id="0" />
        <mxCell id="1" parent="0" />
        <mxCell id="iTNjoexnAtmtu9pE0ld4-1" value="" style="rounded=0;whiteSpace=wrap;html=1;fillColor=#1ba1e2;fontColor=#ffffff;strokeColor=#006EAF;" parent="1" vertex="1">
          <mxGeometry x="504" y="20" width="250" height="140" as="geometry" />
        </mxCell>
        <mxCell id="iTNjoexnAtmtu9pE0ld4-2" value="&lt;font color=&quot;#ffffff&quot; style=&quot;font-size: 14px;&quot;&gt;Provides full functionality for the app on mobile devices&lt;/font&gt;" style="text;html=1;strokeColor=none;fillColor=none;align=center;verticalAlign=middle;whiteSpace=wrap;rounded=0;" parent="1" vertex="1">
          <mxGeometry x="525" y="110" width="200" height="30" as="geometry" />
        </mxCell>
        <mxCell id="iTNjoexnAtmtu9pE0ld4-4" value="&lt;font color=&quot;#ffffff&quot; style=&quot;font-size: 14px;&quot;&gt;[Software System]&lt;/font&gt;" style="text;html=1;strokeColor=none;fillColor=none;align=center;verticalAlign=middle;whiteSpace=wrap;rounded=0;" parent="1" vertex="1">
          <mxGeometry x="568.5" y="60" width="117" height="30" as="geometry" />
        </mxCell>
        <mxCell id="iTNjoexnAtmtu9pE0ld4-5" value="&lt;font style=&quot;&quot; color=&quot;#ffffff&quot;&gt;&lt;font style=&quot;font-size: 22px;&quot;&gt;Mobile Web Application&lt;/font&gt;&lt;br&gt;&lt;/font&gt;" style="text;html=1;strokeColor=none;fillColor=none;align=center;verticalAlign=middle;whiteSpace=wrap;rounded=0;" parent="1" vertex="1">
          <mxGeometry x="500" y="40" width="254" height="30" as="geometry" />
        </mxCell>
        <mxCell id="iTNjoexnAtmtu9pE0ld4-6" value="" style="rounded=0;whiteSpace=wrap;html=1;fillColor=#1ba1e2;strokeColor=#006EAF;fontColor=#ffffff;" parent="1" vertex="1">
          <mxGeometry x="80" y="20" width="240" height="140" as="geometry" />
        </mxCell>
        <mxCell id="iTNjoexnAtmtu9pE0ld4-7" value="" style="rounded=0;whiteSpace=wrap;html=1;fillColor=#b1ddf0;strokeColor=#10739e;" parent="1" vertex="1">
          <mxGeometry x="300" y="220" width="240" height="140" as="geometry" />
        </mxCell>
        <mxCell id="iTNjoexnAtmtu9pE0ld4-8" value="" style="rounded=0;whiteSpace=wrap;html=1;fillColor=#b1ddf0;strokeColor=#10739e;" parent="1" vertex="1">
          <mxGeometry x="300" y="400" width="240" height="140" as="geometry" />
        </mxCell>
        <mxCell id="iTNjoexnAtmtu9pE0ld4-10" value="&lt;font color=&quot;#ffffff&quot; style=&quot;font-size: 14px;&quot;&gt;Allows users to sign in to the app and play game.&lt;/font&gt;" style="text;html=1;strokeColor=none;fillColor=none;align=center;verticalAlign=middle;whiteSpace=wrap;rounded=0;" parent="1" vertex="1">
          <mxGeometry x="320" y="300" width="200" height="30" as="geometry" />
        </mxCell>
        <mxCell id="iTNjoexnAtmtu9pE0ld4-12" value="&lt;font style=&quot;&quot; color=&quot;#ffffff&quot;&gt;&lt;font style=&quot;font-size: 22px;&quot;&gt;Sign In Controller&lt;/font&gt;&lt;br&gt;&lt;/font&gt;" style="text;html=1;strokeColor=none;fillColor=none;align=center;verticalAlign=middle;whiteSpace=wrap;rounded=0;" parent="1" vertex="1">
          <mxGeometry x="304.38" y="230" width="254" height="30" as="geometry" />
        </mxCell>
        <mxCell id="iTNjoexnAtmtu9pE0ld4-13" value="&lt;font color=&quot;#ffffff&quot; style=&quot;font-size: 14px;&quot;&gt;Component: PHP&lt;/font&gt;" style="text;html=1;strokeColor=none;fillColor=none;align=center;verticalAlign=middle;whiteSpace=wrap;rounded=0;" parent="1" vertex="1">
          <mxGeometry x="361.5" y="260" width="117" height="30" as="geometry" />
        </mxCell>
        <mxCell id="iTNjoexnAtmtu9pE0ld4-16" value="&lt;font style=&quot;&quot; color=&quot;#ffffff&quot;&gt;&lt;span style=&quot;font-size: 22px;&quot;&gt;Security Component&lt;/span&gt;&lt;br&gt;&lt;/font&gt;" style="text;html=1;strokeColor=none;fillColor=none;align=center;verticalAlign=middle;whiteSpace=wrap;rounded=0;" parent="1" vertex="1">
          <mxGeometry x="298" y="410" width="254" height="30" as="geometry" />
        </mxCell>
        <mxCell id="iTNjoexnAtmtu9pE0ld4-22" value="" style="shape=cylinder3;whiteSpace=wrap;html=1;boundedLbl=1;backgroundOutline=1;size=15;fillColor=#647687;strokeColor=#314354;fontColor=#ffffff;" parent="1" vertex="1">
          <mxGeometry x="294.5" y="860" width="261" height="140" as="geometry" />
        </mxCell>
        <mxCell id="iTNjoexnAtmtu9pE0ld4-23" value="" style="endArrow=none;dashed=1;html=1;rounded=0;" parent="1" edge="1">
          <mxGeometry width="50" height="50" relative="1" as="geometry">
            <mxPoint x="50" y="830" as="sourcePoint" />
            <mxPoint x="790" y="830" as="targetPoint" />
          </mxGeometry>
        </mxCell>
        <mxCell id="iTNjoexnAtmtu9pE0ld4-24" value="" style="endArrow=none;dashed=1;html=1;rounded=0;" parent="1" edge="1">
          <mxGeometry width="50" height="50" relative="1" as="geometry">
            <mxPoint x="790" y="200" as="sourcePoint" />
            <mxPoint x="790" y="830" as="targetPoint" />
          </mxGeometry>
        </mxCell>
        <mxCell id="iTNjoexnAtmtu9pE0ld4-25" value="" style="endArrow=none;dashed=1;html=1;rounded=0;" parent="1" edge="1">
          <mxGeometry width="50" height="50" relative="1" as="geometry">
            <mxPoint x="50" y="210" as="sourcePoint" />
            <mxPoint x="790" y="210" as="targetPoint" />
          </mxGeometry>
        </mxCell>
        <mxCell id="iTNjoexnAtmtu9pE0ld4-26" value="" style="endArrow=none;dashed=1;html=1;rounded=0;" parent="1" edge="1">
          <mxGeometry width="50" height="50" relative="1" as="geometry">
            <mxPoint x="50" y="830" as="sourcePoint" />
            <mxPoint x="50" y="210" as="targetPoint" />
          </mxGeometry>
        </mxCell>
        <mxCell id="iTNjoexnAtmtu9pE0ld4-27" value="&lt;span style=&quot;color: rgb(255, 255, 255); font-family: Helvetica; font-size: 15px; font-style: normal; font-variant-ligatures: normal; font-variant-caps: normal; font-weight: 400; letter-spacing: normal; orphans: 2; text-align: center; text-indent: 0px; text-transform: none; widows: 2; word-spacing: 0px; -webkit-text-stroke-width: 0px; background-color: rgb(251, 251, 251); text-decoration-thickness: initial; text-decoration-style: initial; text-decoration-color: initial; float: none; display: inline !important;&quot;&gt;Database MySQL&lt;/span&gt;" style="text;whiteSpace=wrap;html=1;" parent="1" vertex="1">
          <mxGeometry x="660" y="640" width="150" height="40" as="geometry" />
        </mxCell>
        <mxCell id="iTNjoexnAtmtu9pE0ld4-28" value="&lt;font color=&quot;#ffffff&quot; style=&quot;font-size: 15px;&quot;&gt;Database MySQL&lt;/font&gt;" style="text;html=1;strokeColor=none;fillColor=none;align=center;verticalAlign=middle;whiteSpace=wrap;rounded=0;" parent="1" vertex="1">
          <mxGeometry x="349.75" y="860" width="163.25" height="30" as="geometry" />
        </mxCell>
        <mxCell id="iTNjoexnAtmtu9pE0ld4-29" value="&lt;font style=&quot;font-size: 15px;&quot; color=&quot;#ffffff&quot;&gt;It stores information about the user, their score and the games created by them&lt;/font&gt;" style="text;html=1;strokeColor=none;fillColor=none;align=center;verticalAlign=middle;whiteSpace=wrap;rounded=0;" parent="1" vertex="1">
          <mxGeometry x="305.86" y="910" width="251.03" height="55" as="geometry" />
        </mxCell>
        <mxCell id="lYapiN6xYkBUisJP2CZ3-1" value="&lt;font style=&quot;&quot; color=&quot;#ffffff&quot;&gt;&lt;font style=&quot;font-size: 22px;&quot;&gt;Web Application&lt;/font&gt;&lt;br&gt;&lt;/font&gt;" style="text;html=1;strokeColor=none;fillColor=none;align=center;verticalAlign=middle;whiteSpace=wrap;rounded=0;" vertex="1" parent="1">
          <mxGeometry x="100" y="40" width="200" height="30" as="geometry" />
        </mxCell>
        <mxCell id="lYapiN6xYkBUisJP2CZ3-2" value="&lt;font style=&quot;font-size: 14px;&quot; color=&quot;#ffffff&quot;&gt;Delivers the dynamic content of the app&lt;/font&gt;" style="text;html=1;strokeColor=none;fillColor=none;align=center;verticalAlign=middle;whiteSpace=wrap;rounded=0;" vertex="1" parent="1">
          <mxGeometry x="100" y="100" width="200" height="30" as="geometry" />
        </mxCell>
        <mxCell id="lYapiN6xYkBUisJP2CZ3-3" value="&lt;font color=&quot;#ffffff&quot;&gt;&lt;span style=&quot;font-size: 14px;&quot;&gt;[Software System]&lt;/span&gt;&lt;/font&gt;" style="text;html=1;strokeColor=none;fillColor=none;align=center;verticalAlign=middle;whiteSpace=wrap;rounded=0;" vertex="1" parent="1">
          <mxGeometry x="141.5" y="60" width="117" height="30" as="geometry" />
        </mxCell>
        <mxCell id="lYapiN6xYkBUisJP2CZ3-5" value="&lt;font color=&quot;#ffffff&quot; style=&quot;font-size: 14px;&quot;&gt;Provides functionality related to signing in&lt;/font&gt;" style="text;html=1;strokeColor=none;fillColor=none;align=center;verticalAlign=middle;whiteSpace=wrap;rounded=0;" vertex="1" parent="1">
          <mxGeometry x="320" y="470" width="200" height="30" as="geometry" />
        </mxCell>
        <mxCell id="lYapiN6xYkBUisJP2CZ3-7" value="" style="rounded=0;whiteSpace=wrap;html=1;fillColor=#f5f5f5;strokeColor=#666666;gradientColor=#b3b3b3;" vertex="1" parent="1">
          <mxGeometry x="80" y="585" width="190" height="140" as="geometry" />
        </mxCell>
        <mxCell id="lYapiN6xYkBUisJP2CZ3-8" value="" style="rounded=0;whiteSpace=wrap;html=1;fillColor=#f5f5f5;strokeColor=#666666;gradientColor=#b3b3b3;" vertex="1" parent="1">
          <mxGeometry x="572" y="585" width="190" height="140" as="geometry" />
        </mxCell>
        <mxCell id="lYapiN6xYkBUisJP2CZ3-9" value="&lt;font style=&quot;&quot; color=&quot;#ffffff&quot;&gt;&lt;font style=&quot;font-size: 22px;&quot;&gt;Earn points&lt;/font&gt;&lt;br&gt;&lt;/font&gt;" style="text;html=1;strokeColor=none;fillColor=none;align=center;verticalAlign=middle;whiteSpace=wrap;rounded=0;" vertex="1" parent="1">
          <mxGeometry x="53" y="600" width="254" height="30" as="geometry" />
        </mxCell>
        <mxCell id="lYapiN6xYkBUisJP2CZ3-12" value="&lt;font style=&quot;font-size: 14px;&quot; color=&quot;#ffffff&quot;&gt;Users earn points during games&lt;/font&gt;" style="text;html=1;strokeColor=none;fillColor=none;align=center;verticalAlign=middle;whiteSpace=wrap;rounded=0;" vertex="1" parent="1">
          <mxGeometry x="80" y="650" width="200" height="30" as="geometry" />
        </mxCell>
        <mxCell id="lYapiN6xYkBUisJP2CZ3-13" value="&lt;font style=&quot;&quot; color=&quot;#ffffff&quot;&gt;&lt;font style=&quot;font-size: 22px;&quot;&gt;Leaderboard&lt;/font&gt;&lt;br&gt;&lt;/font&gt;" style="text;html=1;strokeColor=none;fillColor=none;align=center;verticalAlign=middle;whiteSpace=wrap;rounded=0;" vertex="1" parent="1">
          <mxGeometry x="540" y="600" width="254" height="30" as="geometry" />
        </mxCell>
        <mxCell id="lYapiN6xYkBUisJP2CZ3-14" value="&lt;font style=&quot;font-size: 14px;&quot; color=&quot;#ffffff&quot;&gt;The ranking of all users according to the score&lt;/font&gt;" style="text;html=1;strokeColor=none;fillColor=none;align=center;verticalAlign=middle;whiteSpace=wrap;rounded=0;" vertex="1" parent="1">
          <mxGeometry x="567" y="650" width="200" height="30" as="geometry" />
        </mxCell>
        <mxCell id="lYapiN6xYkBUisJP2CZ3-28" value="" style="endArrow=classic;html=1;rounded=0;fillColor=#f5f5f5;gradientColor=#b3b3b3;strokeColor=#666666;entryX=0.5;entryY=0;entryDx=0;entryDy=0;exitX=0.5;exitY=1;exitDx=0;exitDy=0;" edge="1" parent="1" source="iTNjoexnAtmtu9pE0ld4-7" target="iTNjoexnAtmtu9pE0ld4-8">
          <mxGeometry relative="1" as="geometry">
            <mxPoint x="370" y="380" as="sourcePoint" />
            <mxPoint x="470" y="380" as="targetPoint" />
          </mxGeometry>
        </mxCell>
        <mxCell id="lYapiN6xYkBUisJP2CZ3-29" value="Uses&lt;br&gt;" style="edgeLabel;resizable=0;html=1;align=center;verticalAlign=middle;" connectable="0" vertex="1" parent="lYapiN6xYkBUisJP2CZ3-28">
          <mxGeometry relative="1" as="geometry" />
        </mxCell>
        <mxCell id="lYapiN6xYkBUisJP2CZ3-31" value="" style="endArrow=none;dashed=1;html=1;rounded=0;exitX=0.75;exitY=0;exitDx=0;exitDy=0;entryX=0;entryY=0.5;entryDx=0;entryDy=0;" edge="1" parent="1" source="lYapiN6xYkBUisJP2CZ3-7" target="iTNjoexnAtmtu9pE0ld4-7">
          <mxGeometry width="50" height="50" relative="1" as="geometry">
            <mxPoint x="340" y="590" as="sourcePoint" />
            <mxPoint x="390" y="540" as="targetPoint" />
          </mxGeometry>
        </mxCell>
        <mxCell id="lYapiN6xYkBUisJP2CZ3-32" value="" style="endArrow=none;dashed=1;html=1;rounded=0;exitX=0.25;exitY=0;exitDx=0;exitDy=0;entryX=1;entryY=0.5;entryDx=0;entryDy=0;" edge="1" parent="1" source="lYapiN6xYkBUisJP2CZ3-8" target="iTNjoexnAtmtu9pE0ld4-7">
          <mxGeometry width="50" height="50" relative="1" as="geometry">
            <mxPoint x="340" y="590" as="sourcePoint" />
            <mxPoint x="390" y="540" as="targetPoint" />
          </mxGeometry>
        </mxCell>
        <mxCell id="lYapiN6xYkBUisJP2CZ3-33" value="" style="endArrow=classic;html=1;rounded=0;entryX=0.43;entryY=0;entryDx=0;entryDy=0;exitX=0.5;exitY=1;exitDx=0;exitDy=0;entryPerimeter=0;" edge="1" parent="1" source="iTNjoexnAtmtu9pE0ld4-8" target="iTNjoexnAtmtu9pE0ld4-28">
          <mxGeometry width="50" height="50" relative="1" as="geometry">
            <mxPoint x="350" y="620" as="sourcePoint" />
            <mxPoint x="400" y="570" as="targetPoint" />
          </mxGeometry>
        </mxCell>
        <mxCell id="lYapiN6xYkBUisJP2CZ3-34" value="" style="endArrow=classic;html=1;rounded=0;exitX=0.5;exitY=1;exitDx=0;exitDy=0;" edge="1" parent="1" source="iTNjoexnAtmtu9pE0ld4-6">
          <mxGeometry width="50" height="50" relative="1" as="geometry">
            <mxPoint x="400" y="560" as="sourcePoint" />
            <mxPoint x="200" y="210" as="targetPoint" />
          </mxGeometry>
        </mxCell>
        <mxCell id="lYapiN6xYkBUisJP2CZ3-35" value="" style="endArrow=classic;html=1;rounded=0;exitX=0.585;exitY=1.002;exitDx=0;exitDy=0;exitPerimeter=0;" edge="1" parent="1" source="iTNjoexnAtmtu9pE0ld4-1">
          <mxGeometry width="50" height="50" relative="1" as="geometry">
            <mxPoint x="400" y="560" as="sourcePoint" />
            <mxPoint x="650" y="210" as="targetPoint" />
          </mxGeometry>
        </mxCell>
        <mxCell id="lYapiN6xYkBUisJP2CZ3-36" value="" style="endArrow=classic;html=1;rounded=0;entryX=-0.01;entryY=0.429;entryDx=0;entryDy=0;entryPerimeter=0;exitX=0.5;exitY=1;exitDx=0;exitDy=0;" edge="1" parent="1" source="lYapiN6xYkBUisJP2CZ3-7" target="iTNjoexnAtmtu9pE0ld4-22">
          <mxGeometry width="50" height="50" relative="1" as="geometry">
            <mxPoint x="380" y="550" as="sourcePoint" />
            <mxPoint x="430" y="500" as="targetPoint" />
          </mxGeometry>
        </mxCell>
        <mxCell id="lYapiN6xYkBUisJP2CZ3-37" value="" style="endArrow=classic;html=1;rounded=0;entryX=1;entryY=0.25;entryDx=0;entryDy=0;exitX=0.5;exitY=1;exitDx=0;exitDy=0;" edge="1" parent="1" source="lYapiN6xYkBUisJP2CZ3-8" target="iTNjoexnAtmtu9pE0ld4-29">
          <mxGeometry width="50" height="50" relative="1" as="geometry">
            <mxPoint x="185" y="735" as="sourcePoint" />
            <mxPoint x="302" y="930" as="targetPoint" />
          </mxGeometry>
        </mxCell>
      </root>
    </mxGraphModel>
  </diagram>
</mxfile>
